<svg width="32" height="33" viewBox="0 0 32 33" fill="none" xmlns="http://www.w3.org/2000/svg">
<path fill-rule="evenodd" clip-rule="evenodd" d="M15.9778 22.521C21.8775 30.5635 27.6512 20.2762 27.6427 14.0898C27.6326 6.7755 20.2192 2.6875 15.973 2.6875C9.15766 2.6875 2.66699 8.32017 2.66699 16.0268C2.66699 24.5928 10.107 29.3377 15.973 29.3377C14.6456 29.1465 10.222 28.1987 10.1625 18.0098C10.1225 11.1187 12.4105 8.3655 15.9633 9.57667C16.0429 9.60618 19.8823 11.1208 19.8823 16.0685C19.8823 20.9952 15.9778 22.521 15.9778 22.521Z" fill="url(#paint0_linear_3364_25676)"/>
<path fill-rule="evenodd" clip-rule="evenodd" d="M15.9717 9.5662C12.0734 8.22255 7.29785 11.4355 7.29785 17.871C7.29785 28.379 15.0847 29.3327 16.0285 29.3327C22.8439 29.3327 29.3345 23.7 29.3345 15.9934C29.3345 7.42737 21.8945 2.68254 16.0285 2.68254C17.6532 2.45754 24.7854 4.44087 24.7854 14.1887C24.7854 20.5455 19.4599 24.0062 15.9962 22.5275C15.9166 22.498 12.0772 20.9835 12.0772 16.0357C12.0772 11.109 15.9717 9.5662 15.9717 9.5662Z" fill="url(#paint1_linear_3364_25676)"/>
<defs>
<linearGradient id="paint0_linear_3364_25676" x1="6.61078" y1="6.61484" x2="19.3316" y2="21.5565" gradientUnits="userSpaceOnUse">
<stop stop-color="#00D2C1"/>
<stop offset="1" stop-color="#C1FFFA"/>
</linearGradient>
<linearGradient id="paint1_linear_3364_25676" x1="25.3982" y1="25.3971" x2="13.7818" y2="12.6644" gradientUnits="userSpaceOnUse">
<stop stop-color="#00A7B1"/>
<stop offset="1" stop-color="#E3FFFD"/>
</linearGradient>
</defs>
</svg>
