<?xml version="1.0" standalone="no"?><!DOCTYPE svg PUBLIC "-//W3C//DTD SVG 1.1//EN" "http://www.w3.org/Graphics/SVG/1.1/DTD/svg11.dtd"><svg height="1600" node-id="1" sillyvg="true" template-height="1600" template-width="1600" version="1.1" viewBox="0 0 1600 1600" width="1600" xmlns="http://www.w3.org/2000/svg" xmlns:xlink="http://www.w3.org/1999/xlink"><defs node-id="27"></defs><path d="M 0.00 0.00 L 1600.00 0.00 L 1600.00 1600.00 L 0.00 1600.00 Z" fill="#ffffff" fill-rule="nonzero" node-id="29" stroke="none" target-height="1600" target-width="1600" target-x="0" target-y="0"></path><path d="M 1214.00 1200.50 C 1214.00 1248.27 1007.38 1287.00 752.50 1287.00 C 497.62 1287.00 291.00 1248.27 291.00 1200.50 C 291.00 1152.73 497.62 1114.00 752.50 1114.00 C 1007.38 1114.00 1214.00 1152.73 1214.00 1200.50 Z" fill="#d9d9d9" fill-rule="nonzero" node-id="31" stroke="none" target-height="173" target-width="923" target-x="291" target-y="1114"></path><path d="M 578.56 458.33 L 579.03 458.38 L 579.51 458.44 C 584.56 459.12 592.64 461.57 602.08 464.92 C 612.00 468.43 623.92 473.11 636.42 478.32 C 657.78 487.24 681.00 497.80 699.08 506.90 C 716.00 503.74 733.60 502.17 751.65 502.37 C 770.82 502.58 789.42 504.77 807.19 508.73 C 825.07 500.21 847.55 490.54 868.26 482.36 C 880.79 477.42 892.72 473.00 902.64 469.70 C 912.08 466.57 920.15 464.29 925.18 463.72 L 925.66 463.67 L 926.12 463.63 C 927.48 463.57 928.73 463.79 929.87 464.22 C 932.47 464.01 934.91 466.47 937.17 470.99 C 939.19 474.24 940.95 478.46 942.52 483.20 C 946.07 493.95 949.08 508.78 951.60 525.04 C 956.30 555.34 959.40 591.43 960.95 617.44 C 1009.40 675.71 1043.03 796.47 1041.47 919.81 C 1040.39 1004.90 1063.45 1038.12 1041.47 1136.50 C 1011.11 1272.35 466.00 1288.61 466.00 1090.63 C 466.00 1040.07 490.15 1009.61 490.15 919.81 L 490.15 917.30 C 490.15 807.33 490.14 693.94 531.23 631.27 C 534.53 623.80 538.35 616.54 542.63 609.53 C 544.80 583.91 548.11 549.53 552.72 520.41 C 555.33 503.94 558.39 488.90 561.97 478.01 C 563.75 472.62 565.77 467.89 568.13 464.49 C 570.28 461.39 573.74 458.00 578.56 458.33 Z" fill="#000000" fill-rule="nonzero" node-id="33" stroke="none" target-height="830.607" target-width="597.44995" target-x="466" target-y="458.003"></path><g node-id="83"><path d="M 922.64 498.30 C 933.36 503.02 941.32 599.00 935.64 591.65 C 929.96 584.30 895.53 555.01 870.94 539.53 C 862.65 534.30 905.17 508.33 922.64 498.30 Z M 582.30 494.56 C 599.49 504.98 641.31 531.88 632.88 536.92 C 607.88 551.86 572.68 580.38 566.81 587.60 C 560.93 594.83 571.45 499.05 582.30 494.56 Z" fill="#ffffff" fill-opacity="0.2" fill-rule="nonzero" group-id="1" node-id="37" stroke="none" target-height="104.431" target-width="380.388" target-x="560.933" target-y="494.564"></path></g><path d="M 520.66 723.55 C 524.91 723.34 533.72 723.95 545.12 725.07 C 556.54 726.20 570.66 727.85 585.58 729.71 C 615.43 733.45 648.53 738.06 669.91 741.18 C 670.45 741.26 670.83 741.76 670.74 742.31 C 670.66 742.86 670.15 743.24 669.60 743.16 C 648.24 740.04 615.15 735.43 585.32 731.70 C 570.40 729.83 556.31 728.19 544.90 727.07 C 533.47 725.94 524.82 725.34 520.75 725.55 C 520.19 725.58 519.73 725.16 519.70 724.60 C 519.68 724.05 520.11 723.58 520.66 723.55 Z" fill="#ffffff" fill-rule="nonzero" node-id="40" stroke="none" target-height="19.898987" target-width="151.14801" target-x="519.678" target-y="723.336"></path><path d="M 982.07 720.57 C 977.68 720.27 968.56 720.72 956.74 721.64 C 944.88 722.56 930.23 723.95 914.73 725.54 C 883.74 728.73 849.35 732.74 827.14 735.47 C 826.59 735.53 826.20 736.03 826.26 736.58 C 826.32 737.13 826.82 737.52 827.37 737.45 C 849.57 734.73 883.95 730.72 914.92 727.53 C 930.41 725.93 945.04 724.55 956.88 723.63 C 968.74 722.72 977.71 722.28 981.92 722.56 C 982.48 722.60 982.95 722.18 983.00 721.63 C 983.04 721.08 982.62 720.60 982.07 720.57 Z" fill="#ffffff" fill-rule="nonzero" node-id="42" stroke="none" target-height="17.247986" target-width="156.841" target-x="826.196" target-y="720.27"></path><path d="M 669.66 751.63 C 665.42 751.34 656.59 751.80 645.16 752.72 C 633.70 753.64 619.54 755.03 604.56 756.63 C 574.60 759.83 541.35 763.85 519.88 766.58 C 519.33 766.65 518.94 767.15 519.01 767.70 C 519.07 768.25 519.57 768.64 520.12 768.57 C 541.58 765.84 574.81 761.82 604.76 758.62 C 619.73 757.02 633.87 755.63 645.31 754.71 C 656.78 753.79 665.44 753.35 669.51 753.63 C 670.06 753.67 670.54 753.25 670.58 752.70 C 670.63 752.15 670.21 751.67 669.66 751.63 Z" fill="#ffffff" fill-rule="nonzero" node-id="44" stroke="none" target-height="17.297974" target-width="151.685" target-x="518.941" target-y="751.33905"></path><path d="M 827.02 747.41 C 831.41 747.20 840.52 747.81 852.31 748.94 C 864.13 750.07 878.73 751.72 894.17 753.59 C 925.05 757.33 959.30 761.96 981.42 765.08 C 981.97 765.16 982.34 765.67 982.26 766.21 C 982.18 766.76 981.67 767.14 981.13 767.06 C 959.02 763.94 924.78 759.32 893.92 755.58 C 878.49 753.71 863.90 752.06 852.11 750.93 C 840.28 749.80 831.32 749.20 827.10 749.41 C 826.55 749.44 826.08 749.01 826.06 748.46 C 826.04 747.91 826.46 747.44 827.02 747.41 Z" fill="#ffffff" fill-rule="nonzero" node-id="46" stroke="none" target-height="19.945007" target-width="156.30603" target-x="826.037" target-y="747.195"></path><path d="M 802.01 668.46 C 806.92 646.84 830.83 633.80 847.68 637.61 C 871.43 642.96 878.38 672.64 873.47 694.26 C 868.55 715.88 845.98 719.53 829.89 715.90 C 803.84 710.02 797.09 690.08 802.01 668.46 Z M 622.19 667.70 C 625.96 645.44 649.53 630.83 666.89 633.74 C 691.35 637.84 700.10 667.62 696.33 689.88 C 692.56 712.14 669.80 717.13 653.23 714.36 C 626.41 709.86 618.42 689.97 622.19 667.70 Z" fill="#ffffff" fill-rule="nonzero" node-id="48" stroke="none" target-height="88.69794" target-width="259.96698" target-x="618.416" target-y="630.833"></path><path d="M 804.36 670.32 C 808.31 652.94 824.89 640.25 840.98 643.88 C 859.78 648.12 866.74 675.80 862.79 693.19 C 858.84 710.57 842.40 711.99 826.32 708.36 C 810.24 704.73 800.41 687.70 804.36 670.32 Z M 623.63 669.93 C 626.66 652.03 642.81 638.19 659.37 640.97 C 678.74 644.21 687.39 671.96 684.36 689.86 C 681.32 707.75 664.68 710.13 648.12 707.36 C 631.56 704.58 620.60 687.82 623.63 669.93 Z" fill="#fed43e" fill-rule="nonzero" node-id="50" stroke="none" target-height="73.79791" target-width="246.14703" target-x="620.597" target-y="638.19"></path><path d="M 812.56 668.68 C 815.53 668.03 819.09 672.91 820.51 679.56 C 821.94 686.22 820.68 692.13 817.71 692.77 C 814.74 693.42 811.18 688.54 809.76 681.89 C 808.34 675.24 809.59 669.32 812.56 668.68 Z M 639.79 667.97 C 642.82 667.31 646.42 672.17 647.84 678.81 C 649.26 685.45 647.96 691.37 644.93 692.03 C 641.91 692.68 638.30 687.83 636.88 681.18 C 635.47 674.54 636.77 668.62 639.79 667.97 Z" fill="#000000" fill-rule="nonzero" node-id="52" stroke="none" target-height="26.10608" target-width="186.47198" target-x="635.465" target-y="667.312"></path><path d="M 774.15 706.65 C 774.08 711.98 764.44 712.00 752.56 711.87 C 740.68 711.74 731.05 711.51 731.12 706.18 C 731.19 700.84 740.94 692.43 752.82 692.56 C 764.70 692.69 774.22 701.32 774.15 706.65 Z" fill="#ffcfc2" fill-rule="nonzero" node-id="54" stroke="none" target-height="19.572998" target-width="43.166992" target-x="731.05" target-y="692.428"></path><path d="M 700.03 1030.61 C 702.70 1029.90 705.43 1031.48 706.14 1034.15 C 714.67 1066.26 725.87 1114.95 731.72 1156.65 C 734.64 1177.46 736.26 1196.79 735.47 1211.53 C 735.08 1218.87 734.07 1225.41 732.13 1230.52 C 730.22 1235.57 727.00 1240.17 721.61 1241.76 C 711.20 1244.85 699.58 1239.92 688.86 1232.11 C 677.86 1224.11 666.48 1212.12 655.96 1198.42 C 634.98 1171.11 616.57 1135.86 611.42 1109.29 C 610.89 1106.58 612.66 1103.96 615.37 1103.43 C 618.09 1102.90 620.71 1104.68 621.24 1107.39 C 625.98 1131.88 643.44 1165.71 663.89 1192.33 C 674.08 1205.60 684.80 1216.79 694.74 1224.03 C 704.96 1231.47 713.12 1233.85 718.77 1232.18 C 719.81 1231.87 721.35 1230.74 722.78 1226.97 C 724.19 1223.27 725.11 1217.91 725.48 1211.00 C 726.22 1197.24 724.71 1178.66 721.82 1158.04 C 716.04 1116.88 704.95 1068.61 696.48 1036.72 C 695.77 1034.05 697.36 1031.31 700.03 1030.61 Z" fill="#ffffff" fill-rule="nonzero" node-id="56" stroke="none" target-height="214.94995" target-width="125.367004" target-x="610.891" target-y="1029.9"></path><path d="M 857.00 702.00 C 827.40 710.80 858.00 836.00 877.00 897.50 C 908.67 891.83 970.30 872.90 963.50 842.50 C 955.00 804.50 894.00 691.00 857.00 702.00 Z" fill="#000000" fill-rule="nonzero" node-id="58" stroke="none" target-height="206.50006" target-width="142.89996" target-x="827.4" target-y="690.999"></path><path d="M 875.13 904.46 C 872.46 905.17 869.72 903.58 869.01 900.91 C 860.48 868.80 849.28 820.12 843.43 778.41 C 840.52 757.61 838.89 738.27 839.68 723.53 C 840.08 716.19 841.08 709.65 843.02 704.55 C 844.94 699.50 848.15 694.90 853.54 693.30 C 863.95 690.22 875.58 695.15 886.30 702.95 C 897.29 710.96 908.68 722.95 919.20 736.65 C 940.18 763.96 958.59 799.21 963.74 825.78 C 964.26 828.49 962.49 831.11 959.78 831.64 C 957.07 832.16 954.44 830.39 953.92 827.68 C 949.17 803.19 931.71 769.36 911.27 742.74 C 901.07 729.47 890.36 718.28 880.41 711.04 C 870.19 703.60 862.04 701.21 856.38 702.89 C 855.34 703.20 853.80 704.33 852.37 708.09 C 850.96 711.80 850.04 717.16 849.67 724.07 C 848.93 737.83 850.45 756.40 853.34 777.03 C 859.11 818.18 870.20 866.45 878.67 898.35 C 879.38 901.01 877.79 903.75 875.13 904.46 Z" fill="#ffffff" fill-rule="nonzero" node-id="60" stroke="none" target-height="214.953" target-width="125.367004" target-x="838.895" target-y="690.217"></path><path d="M 519.22 1067.69 C 535.69 1054.32 535.54 1072.92 544.88 1081.26 C 557.24 1092.30 567.62 1091.75 571.94 1121.81 C 576.25 1151.87 568.69 1208.56 525.53 1226.84 C 482.37 1245.11 456.47 1179.09 454.48 1158.46 C 452.49 1137.83 456.50 1117.27 469.75 1107.77 C 482.70 1098.49 479.47 1080.64 488.68 1071.81 C 498.92 1062.00 507.60 1077.12 519.22 1067.69 Z M 991.36 1081.26 C 1000.77 1072.92 1000.63 1054.32 1017.23 1067.69 C 1028.95 1077.12 1037.70 1062.00 1048.03 1071.81 C 1057.32 1080.64 1054.06 1098.49 1067.11 1107.77 C 1080.48 1117.27 1084.52 1137.83 1082.51 1158.46 C 1080.51 1179.09 1054.39 1245.11 1010.87 1226.84 C 967.35 1208.56 959.72 1151.87 964.07 1121.81 C 968.42 1091.75 978.89 1092.30 991.36 1081.26 Z" fill="#000000" fill-rule="nonzero" node-id="62" stroke="none" target-height="190.79004" target-width="632.03" target-x="452.49" target-y="1054.32"></path><path d="M 528.85 1055.00 C 534.78 1054.98 538.67 1058.43 540.99 1061.36 C 543.08 1063.99 544.95 1067.61 546.18 1069.75 C 547.68 1072.36 548.90 1074.12 550.21 1075.29 C 552.89 1077.69 555.45 1079.45 558.34 1081.50 C 561.14 1083.48 564.32 1085.79 567.27 1088.93 C 573.48 1095.57 577.57 1104.75 579.86 1120.67 C 582.17 1136.81 581.30 1159.77 574.13 1181.28 C 566.93 1202.84 553.03 1223.88 528.65 1234.20 C 515.74 1239.67 503.68 1238.89 493.15 1234.03 C 482.92 1229.30 474.59 1220.94 468.08 1211.92 C 455.17 1194.02 447.66 1171.02 446.52 1159.23 C 445.46 1148.22 445.95 1136.92 448.68 1126.85 C 451.40 1116.81 456.50 1107.42 465.09 1101.27 C 469.17 1098.35 471.00 1094.01 472.94 1087.38 C 473.82 1084.36 474.84 1080.44 476.21 1076.94 C 477.63 1073.30 479.68 1069.35 483.14 1066.04 C 487.03 1062.31 491.30 1060.57 495.78 1060.36 C 499.72 1060.19 503.39 1061.29 505.59 1061.90 C 508.24 1062.65 509.58 1062.96 510.80 1062.93 C 511.61 1062.91 512.63 1062.74 514.18 1061.48 C 518.71 1057.80 523.59 1055.01 528.85 1055.00 Z M 1007.52 1055.00 C 1012.78 1055.01 1017.68 1057.78 1022.25 1061.46 C 1023.82 1062.72 1024.87 1062.91 1025.72 1062.93 C 1026.97 1062.96 1028.35 1062.64 1031.01 1061.90 C 1033.23 1061.28 1036.92 1060.19 1040.87 1060.36 C 1045.34 1060.56 1049.63 1062.30 1053.54 1066.02 C 1057.03 1069.33 1059.10 1073.27 1060.54 1076.92 C 1061.91 1080.42 1062.95 1084.35 1063.83 1087.37 C 1065.78 1093.98 1067.63 1098.32 1071.75 1101.25 C 1080.40 1107.40 1085.55 1116.78 1088.30 1126.84 C 1091.05 1136.91 1091.55 1148.22 1090.48 1159.24 C 1089.33 1171.04 1081.74 1194.05 1068.73 1211.94 C 1062.16 1220.97 1053.77 1229.32 1043.48 1234.04 C 1032.88 1238.89 1020.76 1239.66 1007.77 1234.21 C 983.21 1223.90 969.20 1202.88 961.93 1181.29 C 954.69 1159.78 953.82 1136.81 956.15 1120.66 C 958.46 1104.73 962.59 1095.55 968.85 1088.91 C 971.82 1085.77 975.03 1083.46 977.84 1081.48 C 980.76 1079.43 983.34 1077.67 986.05 1075.27 C 987.38 1074.09 988.61 1072.33 990.11 1069.73 C 991.35 1067.59 993.24 1063.97 995.35 1061.34 C 997.70 1058.40 1001.60 1054.98 1007.52 1055.00 Z M 544.88 1081.26 C 535.54 1072.92 535.69 1054.32 519.22 1067.69 L 518.68 1068.11 C 507.33 1076.65 498.76 1062.15 488.68 1071.81 L 488.26 1072.23 C 479.57 1081.19 482.49 1098.64 469.75 1107.77 L 469.14 1108.22 C 456.37 1117.91 452.52 1138.15 454.48 1158.46 C 456.48 1179.09 482.37 1245.11 525.53 1226.84 C 568.02 1208.85 576.01 1153.63 572.13 1123.24 L 571.94 1121.81 C 567.62 1091.75 557.24 1092.30 544.88 1081.26 Z M 1017.23 1067.69 C 1000.62 1054.32 1000.77 1072.92 991.35 1081.26 C 978.89 1092.30 968.42 1091.75 964.07 1121.81 L 963.88 1123.24 C 959.97 1153.63 968.03 1208.85 1010.87 1226.84 C 1054.39 1245.11 1080.50 1179.09 1082.51 1158.46 C 1084.49 1138.15 1080.61 1117.91 1067.73 1108.22 L 1067.11 1107.77 C 1054.27 1098.64 1057.22 1081.19 1048.46 1072.23 L 1048.03 1071.81 C 1037.86 1062.15 1029.22 1076.65 1017.78 1068.11 L 1017.23 1067.69 Z" fill="#ffffff" fill-rule="nonzero" node-id="64" stroke="none" target-height="190.79004" target-width="646.093" target-x="445.457" target-y="1054.32"></path><g node-id="84"><path d="M 513.12 1144.56 C 528.06 1138.17 541.99 1146.14 544.24 1162.34 C 546.49 1178.55 536.20 1196.86 521.26 1203.24 C 506.32 1209.63 492.39 1201.66 490.14 1185.46 C 487.89 1169.25 498.18 1150.94 513.12 1144.56 Z M 992.42 1162.34 C 994.67 1146.14 1008.61 1138.17 1023.54 1144.56 C 1038.48 1150.94 1048.77 1169.25 1046.53 1185.46 C 1044.28 1201.66 1030.34 1209.63 1015.40 1203.24 C 1000.46 1196.86 990.18 1178.55 992.42 1162.34 Z M 477.50 1134.00 C 481.64 1134.00 485.00 1139.59 485.00 1146.50 C 485.00 1153.40 481.64 1159.00 477.50 1159.00 C 473.36 1159.00 470.00 1153.40 470.00 1146.50 C 470.00 1139.59 473.36 1134.00 477.50 1134.00 Z M 1059.50 1134.00 C 1063.64 1134.00 1067.00 1139.59 1067.00 1146.50 C 1067.00 1153.40 1063.64 1159.00 1059.50 1159.00 C 1055.36 1159.00 1052.00 1153.40 1052.00 1146.50 C 1052.00 1139.59 1055.36 1134.00 1059.50 1134.00 Z M 506.50 1107.00 C 510.64 1107.00 514.00 1113.04 514.00 1120.50 C 514.00 1127.95 510.64 1134.00 506.50 1134.00 C 502.36 1134.00 499.00 1127.95 499.00 1120.50 C 499.00 1113.04 502.36 1107.00 506.50 1107.00 Z M 1029.50 1107.00 C 1033.64 1107.00 1037.00 1113.04 1037.00 1120.50 C 1037.00 1127.95 1033.64 1134.00 1029.50 1134.00 C 1025.36 1134.00 1022.00 1127.95 1022.00 1120.50 C 1022.00 1113.04 1025.36 1107.00 1029.50 1107.00 Z M 535.00 1102.00 C 538.87 1102.00 542.00 1107.59 542.00 1114.50 C 542.00 1121.40 538.87 1127.00 535.00 1127.00 C 531.13 1127.00 528.00 1121.40 528.00 1114.50 C 528.00 1107.59 531.13 1102.00 535.00 1102.00 Z M 1001.50 1102.00 C 1005.64 1102.00 1009.00 1107.59 1009.00 1114.50 C 1009.00 1121.40 1005.64 1127.00 1001.50 1127.00 C 997.36 1127.00 994.00 1121.40 994.00 1114.50 C 994.00 1107.59 997.36 1102.00 1001.50 1102.00 Z" fill="#ff8f8e" fill-opacity="0.4" fill-rule="nonzero" group-id="2" node-id="68" stroke="none" target-height="107.630005" target-width="597" target-x="470" target-y="1102"></path></g><path d="M 602.86 384.04 L 726.58 230.73 L 859.50 441.00 L 712.87 620.60 L 602.86 384.04 Z" fill="#ffffff" fill-rule="nonzero" node-id="71" stroke="none" target-height="389.86298" target-width="256.638" target-x="602.862" target-y="230.732"></path><path d="M 1124.06 582.09 L 864.78 446.68 L 719.23 627.04 L 1004.15 737.22 L 1124.06 582.09 Z" fill="#ffffff" fill-rule="nonzero" node-id="73" stroke="none" target-height="290.53397" target-width="404.83307" target-x="719.227" target-y="446.683"></path><path d="M 476.49 385.76 L 593.50 386.22 L 703.78 620.96 L 582.10 629.89 L 476.49 385.76 Z" fill="#ffffff" fill-rule="nonzero" node-id="75" stroke="none" target-height="244.12903" target-width="227.29404" target-x="476.486" target-y="385.758"></path><path d="M 1111.79 713.02 L 1012.58 742.92 L 708.07 630.29 L 830.82 597.17 L 1111.79 713.02 Z" fill="#ffffff" fill-rule="nonzero" node-id="77" stroke="none" target-height="145.74298" target-width="403.72498" target-x="708.06506" target-y="597.174"></path><path d="M 977.21 340.44 L 1139.83 577.14 L 1133.26 584.32 L 1133.18 584.27 L 1055.71 684.50 L 1126.64 713.75 L 1012.41 748.17 L 711.73 636.96 L 711.45 637.31 L 711.20 636.77 L 696.01 631.15 L 578.71 639.75 L 464.67 376.15 L 596.74 376.67 L 727.11 215.12 L 726.71 214.48 L 977.21 340.44 Z M 1015.19 736.93 L 1096.94 712.30 L 1049.38 692.69 L 1015.19 736.93 Z M 731.83 629.03 L 1004.46 734.45 L 1039.79 688.74 L 830.47 602.43 L 731.83 629.03 Z M 726.64 620.12 L 831.16 591.92 L 1046.12 680.55 L 1121.40 583.16 L 864.66 449.09 L 726.64 620.12 Z M 585.12 629.30 L 700.58 620.83 L 590.55 386.61 L 479.94 386.17 L 585.12 629.30 Z M 604.34 383.18 L 713.77 618.51 L 858.76 438.85 L 726.36 231.97 L 604.34 383.18 Z" fill="#000000" fill-rule="nonzero" node-id="79" stroke="none" target-height="533.696" target-width="675.157" target-x="464.673" target-y="214.477"></path><path d="M 831.50 602.50 L 732.50 628.50 L 1008.50 739.00 L 1098.00 712.00 L 831.50 602.50 Z" fill="#ffffff" fill-rule="nonzero" node-id="81" stroke="none" target-height="136.5" target-width="365.50006" target-x="732.49994" target-y="602.5"></path></svg>